PathFileType	4	(X/Y/Z)	RBDS012\RBDS012runT45.trc
DataRate	CameraRate	NumFrames	NumMarkers	Units	OrigDataRate	OrigDataStartFrame	OrigNumFrames
150.000000	150.000000	4	33	mm	150.000000	0	4500
Frame#	Time	L.ASIS			L.Heel.Bottom			L.Heel.Lateral			L.Heel.Top			L.Iliac.Crest			L.MT1			L.MT5			L.PSIS			L.Shank.Bottom.Lateral			L.Shank.Bottom.Medial			L.Shank.Top.Lateral			L.Shank.Top.Medial			L.Thigh.Bottom.Lateral			L.Thigh.Bottom.Medial			L.Thigh.Top.Lateral			L.Thigh.Top.Medial			R.ASIS			R.ASY			R.Heel.Bottom			R.Heel.Lateral			R.Heel.Top			R.Iliac.Crest			R.MT1			R.MT5			R.PSIS			R.Shank.Bottom.Lateral			R.Shank.Bottom.Medial			R.Shank.Top.Lateral			R.Shank.Top.Medial			R.Thigh.Bottom.Lateral			R.Thigh.Bottom.Medial			R.Thigh.Top.Lateral			R.Thigh.Top.Medial			
		X1	Y1	Z1	X2	Y2	Z2	X3	Y3	Z3	X4	Y4	Z4	X5	Y5	Z5	X6	Y6	Z6	X7	Y7	Z7	X8	Y8	Z8	X9	Y9	Z9	X10	Y10	Z10	X11	Y11	Z11	X12	Y12	Z12	X13	Y13	Z13	X14	Y14	Z14	X15	Y15	Z15	X16	Y16	Z16	X17	Y17	Z17	X18	Y18	Z18	X19	Y19	Z19	X20	Y20	Z20	X21	Y21	Z21	X22	Y22	Z22	X23	Y23	Z23	X24	Y24	Z24	X25	Y25	Z25	X26	Y26	Z26	X27	Y27	Z27	X28	Y28	Z28	X29	Y29	Z29	X30	Y30	Z30	X31	Y31	Z31	X32	Y32	Z32	X33	Y33	Z33	

1	0	2288.576033263974	991.4215747316499	881.9354553917079	1602.734592179021	257.7274315622607	944.806537166406	1628.247144213919	238.54853320998	897.9228324776692	1648.864345006435	277.6367822453402	941.1577350536021	2278.130975089211	1065.993089909817	862.1740047672961	1735.21483597111	77.7962917749265	989.1249000912178	1717.692890639571	99.13361989612669	870.4380842111213	2133.816473278618	1070.308074252231	965.7370281441647	1752.561305749457	293.9507029790209	884.9546513258642	1719.58442162121	320.4258535574995	920.4450820549239	1793.738411133423	361.8844657091941	872.8115759635643	1762.584458568489	388.4333282320562	907.5671890531604	2063.937723562588	646.1328393248351	853.7286930080276	2002.820472061719	673.6961952407808	882.6504643761292	2097.316816827442	749.7809819777606	835.3538567445171	2042.640669012627	775.5212417157898	867.6374258854682	2290.513920620755	1026.213437790579	1146.562020957394	2389.115964254914	169.5431520851972	1065.390870701088	2188.243485500912	175.1558002144673	1041.027113093714	2210.49437247684	184.4985637851436	1080.013406875218	2214.695356718529	218.8115796597572	1042.947106828839	2246.636578389396	1098.403222584473	1184.294695146654	2407.204112870885	116.1477181303202	1019.000877750828	2369.554502604577	121.9474780967683	1131.169314430445	2128.069068518982	1072.754541826292	1074.514413536419	2307.114925523207	290.0101976192184	1108.017303306374	2274.807687498144	312.9604277662049	1074.93293565109	2336.656548717063	366.8572737491912	1130.67242535184	2299.890628592523	387.3901511085737	1097.067600826303	2412.344057202592	683.3903158919751	1182.737655009102	2363.154786502022	644.8023794483413	1143.936345584418	2335.862838769046	760.3009646874622	1196.706666282474	2289.070430602174	724.7256913903735	1160.263157185078	
2	0.006666666666666667	2289.940225033295	993.9938663765515	882.4216207884938	1587.313492467804	279.1299546325059	949.4315995236243	1610.832065635741	259.7705131227926	901.6510798885489	1634.13592941409	297.2203640063531	944.6687134748959	2280.705202131266	1069.173839614009	863.1972083637069	1713.158943762528	93.01182671455847	987.9227612218893	1693.820409707485	117.249917922209	870.1717511067975	2136.121818743557	1073.740652481558	964.524019136879	1737.618832644198	309.3301428208572	886.0228934788767	1706.527233591645	337.0830834883667	922.3575680992871	1781.842259484396	375.2777687973859	873.6891226473148	1752.402990771362	403.0198517093894	909.0033099067201	2063.179828090038	649.3649292499158	853.6584088640454	2001.867578010877	677.4983155341528	881.7079110786693	2097.379619077039	752.7349072932434	834.9357840746233	2042.441171266897	779.0165787705034	866.3299785378393	2292.346637974441	1029.182459317848	1146.500352663374	2423.641139912715	166.8016829209772	1068.659444097256	2226.712294301526	153.1260021945899	1042.08883364019	2247.131467008548	164.2463958005994	1081.304605692589	2248.378231686856	198.4076726837931	1044.029603342079	2247.906117999018	1100.615799259579	1184.625530069839	2447.125295817867	116.4654233570157	1022.677599679125	2408.260774276344	118.214941151773	1134.483433988501	2130.420171515522	1075.735784660078	1073.61000825904	2331.321634332823	278.0731535891593	1109.134053950572	2298.642266862348	298.4222022036373	1075.250929667956	2353.803980404228	356.0540907554021	1131.912312155723	2316.964121197825	373.672198310781	1097.272649477778	2408.945864464526	680.194585033723	1181.67724883936	2359.159775930011	642.0244432611031	1143.255792537513	2333.847149129846	758.4505975087141	1194.833622218982	2286.403045502743	723.2670992175654	1158.72253522983	
3	0.01333333333333333	2291.285192056991	996.4344282652321	882.9044727379601	1572.405142808509	300.8976004387061	953.881723795123	1593.968596012511	281.3156616776404	905.2567155077536	1619.906280083433	317.1123387421617	948.0839602200357	2283.107218612332	1072.275733230307	864.1514154667909	1691.298257124185	108.6889201537584	986.863951472012	1670.376429519871	135.7249873072574	869.9942978209451	2138.347036420459	1077.042556422104	963.4371363967911	1723.117977926679	324.8684555273749	887.1039297537991	1693.936359740106	353.9116113382503	924.2219561591889	1770.392405116986	388.7184219576175	874.5706334659966	1742.700791158178	417.6646937665053	910.4003622812467	2062.722290102443	652.310078738405	853.6024507549032	2001.182785592628	680.9551419567895	880.7687260243993	2097.658100882703	755.4311188150305	834.5541890197592	2042.424565864669	782.1992804963252	865.0403355581311	2294.070754873286	1031.884363083178	1146.438771638886	2457.347568499909	164.5119426518996	1071.931919345205	2264.679907041424	131.7790191687119	1043.333337109158	2283.286528141068	144.6288175007186	1082.770153299536	2281.558305832421	178.5826147770644	1045.320424363696	2249.178546412949	1102.59998958645	1184.937832502329	2486.06711308819	117.333471954831	1026.312773462932	2446.209631729871	115.0379356746986	1137.795501715176	2132.697529367662	1078.539018596428	1072.812194770922	2355.083546601977	266.540517207084	1110.36822459342	2322.023478141539	284.2775175347675	1075.737178084244	2370.601860258171	345.5494308427224	1133.220589340006	2333.681087550142	360.2471248614817	1097.61886219089	2405.40003729009	676.7230824027009	1180.706102317555	2355.094687891071	639.0917228962642	1142.478674836757	2331.68823326965	756.3217385803439	1193.120321163844	2283.662049667231	721.6322960307717	1157.197374489536	
4	0.02	2292.601259518611	998.6439466193224	883.3691516537948	1558.475399502699	323.4014564899765	957.9943018595709	1578.153306253995	303.5190499846686	908.6235517612715	1606.624787233735	337.6264275135921	951.3083407991653	2285.167569670426	1075.254059943578	864.9645701750718	1669.782645221627	125.2944078799495	986.088391578944	1647.718795024105	154.9277291240508	869.9942212470442	2140.430977127778	1080.099876309401	962.6040102593579	1709.448254239864	340.7361993417788	888.2101423393182	1682.221819199467	371.0953057628611	925.9911159558264	1759.783611647917	402.2723619553	875.4591326466592	1733.902535379794	432.4464996559611	911.7213604889711	2062.82521792483	654.7102608959891	853.568897706193	2001.00469812169	683.7545530260018	879.8469537367826	2098.33728988532	757.6373847465966	834.2395204329918	2042.753257963009	784.788681986975	863.7979524224304	2295.600609540933	1034.074531543914	1146.367626133729	2489.522743225141	162.9810874694745	1075.19006920331	2301.637161768568	111.7360261646956	1044.907230808299	2318.483839093027	126.2163096164722	1084.545865173272	2313.765342095151	159.8651440415175	1046.981002580187	2250.455057969793	1104.160920471041	1185.211276251795	2523.155341674172	119.101814214429	1029.841611275174	2482.707821763453	112.7991615546391	1141.071085101481	2134.834139529432	1080.988263226633	1072.228497547224	2377.996460553295	255.7298020706913	1111.811605805563	2344.542941035697	270.8348239029061	1076.520725857707	2386.729462612022	335.5758248087369	1134.644453330701	2349.716596790386	347.341676098535	1098.210687585015	2401.6021170762	672.7431378688973	1179.893489634258	2350.910862192853	635.8646386025242	1141.536843342154	2329.28394443562	753.6776501266114	1191.699556327063	2280.799333434477	719.6651198477692	1155.710669945213	
